<svg xmlns="http://www.w3.org/2000/svg" version="1.1" xmlns:xlink="http://www.w3.org/1999/xlink" xmlns:svgjs="http://svgjs.com/svgjs" width="1920" height="1080" preserveAspectRatio="none" viewBox="0 0 1920 1080"><g mask="url(&quot;#SvgjsMask1124&quot;)" fill="none"><rect width="1920" height="1080" x="0" y="0" fill="rgba(52, 97, 224, 1)"></rect><path d="M0,782.403C144.193,757.578,191.463,568.544,313.915,488.461C434.826,409.387,630.371,445.747,704.44,321.707C777.536,199.296,697.603,42.93,662.47,-95.249C630.712,-220.155,586.6,-338.301,510.233,-442.119C428.73,-552.918,342.827,-680.028,208.985,-711.739C76.199,-743.2,-43.66,-630.834,-177.674,-605.104C-331.423,-575.585,-516.822,-653.056,-634.498,-549.796C-751.182,-447.406,-733.064,-261.904,-745.16,-107.138C-756.561,38.746,-767.186,189.564,-702.542,320.84C-638.768,450.348,-512.672,530.731,-392.022,609.997C-270.248,690.001,-143.592,807.124,0,782.403" fill="#1f4dce"></path><path d="M1920 1781.981C2083.787 1787.434 2246.968 1885.9009999999998 2399.632 1826.3220000000001 2560.378 1763.589 2676.953 1615.384 2748.837 1458.517 2820.77 1301.542 2865.9539999999997 1112.942 2799.584 953.535 2735.545 799.725 2534.818 766.53 2413.279 652.571 2308.975 554.772 2266.771 398.32899999999995 2139.001 334.15 2001 264.832 1839.716 262.25300000000004 1687.443 287.985 1521.79 315.97799999999995 1349.6570000000002 363.62 1235.453 486.836 1119.87 611.54 1088.136 788.645 1067.028 957.361 1046.226 1123.631 1044.031 1295.839 1115.2649999999999 1447.51 1186.113 1598.358 1306.568 1731.0929999999998 1460.462 1795.056 1604.893 1855.086 1763.6779999999999 1776.777 1920 1781.981" fill="#567be5"></path></g><defs><mask id="SvgjsMask1124"><rect width="1920" height="1080" fill="#ffffff"></rect></mask></defs></svg>